Coordinates
version=1
nRows=6
nColumns=107
inDegrees=yes

Units are S.I. units (second, meters, Newtons, ...)
If the header above contains a line with 'inDegrees', this indicates whether rotational values are in degrees (yes) or radians (no).

endheader
time	sternoclavicular_r2	sternoclavicular_r3	unrotscap_r3	unrotscap_r2	acromioclavicular_r2	acromioclavicular_r3	acromioclavicular_r1	unrothum_r1	unrothum_r3	unrothum_r2	elv_angle	shoulder_elv	shoulder1_r2	shoulder_rot	elbow_flexion	pro_sup	deviation	flexion	proximal_distal_r1	proximal_distal_r3	cmc_flexion	cmc_abduction	mp_flexion	ip_flexion	mcp2_flexion	mcp2_abduction	pm2_flexion	md2_flexion	mcp3_flexion	mcp3_abduction	pm3_flexion	md3_flexion	mcp4_flexion	mcp4_abduction	pm4_flexion	md4_flexion	mcp5_flexion	mcp5_abduction	pm5_flexion	md5_flexion	bicpt_tx	bicpt_ty	bicpt_tz	bicpt2_tx	bicpt2_ty	bicpt2_tz	ptpt_tx	ptpt_ty	ptpt_tz	FCUpt_tx	FCUpt_ty	FCUpt_tz	EDCpt_tx	EDCpt_ty	EDCpt_tz	APLpt_tx	APLpt_ty	APLpt_tz	FPLpt_tx	FPLpt_ty	FPLpt_tz	FPLpt2_tx	FPLpt2_ty	FPLpt2_tz	PEC1pt2_tx	PEC1pt2_ty	PEC1pt2_tz	PEC1pt3_tx	PEC1pt3_ty	PEC1pt3_tz	PEC2pt2_tx	PEC2pt2_ty	PEC2pt2_tz	PEC2pt3_tx	PEC2pt3_ty	PEC2pt3_tz	PEC3pt2_tx	PEC3pt2_ty	PEC3pt2_tz	PEC3pt3_tx	PEC3pt3_ty	PEC3pt3_tz	DELT2pt2a_tx	DELT2pt2a_ty	DELT2pt2a_tz	DELT2pt2_tx	DELT2pt2_ty	DELT2pt2_tz	LAT1pt2_tx	LAT1pt2_ty	LAT1pt2_tz	LAT1pt3_tx	LAT1pt3_ty	LAT1pt3_tz	LAT2pt2_tx	LAT2pt2_ty	LAT2pt2_tz	LAT2pt3_tx	LAT2pt3_ty	LAT2pt3_tz	LAT3pt2_tx	LAT3pt2_ty	LAT3pt2_tz	LAT3pt3_tx	LAT3pt3_ty	LAT3pt3_tz
      1.90000000	     -0.31372164	      0.13287768	     -0.13287768	      0.31372164	     -0.06352225	      0.51336448	      0.23075380	     -0.23075380	     -0.51336448	      0.06352225	    101.32123900	     74.27638603	     -1.76838922	    -34.09312919	     29.55344172	     34.99640777	      0.16676045	     -0.44703721	      0.20355563	     -0.22351861	     36.70614315	    -12.25035109	    -24.28826242	     -0.51178254	      6.40911580	     -0.89251907	     29.00385325	     -1.35094926	     11.31427064	     -6.55483062	     10.30422662	     12.77513382	      4.08245412	     -8.10607890	      5.68453284	     19.52834595	     -7.74030391	    -11.34398294	      7.03278473	      5.09817410	      0.00087754	     -0.03098728	     -0.00484560	      0.01653642	     -0.01822834	     -0.00798662	      0.00496416	     -0.06657205	     -0.00286915	      0.00728035	     -0.18359560	     -0.00034147	     -0.00419956	      0.00118057	      0.00017556	      0.00029002	      0.00011601	      0.00058005	      0.00037123	      0.00111369	      0.00062645	     -0.00001277	     -0.00016914	     -0.00020297	      0.00243462	      0.00854179	      0.00594212	     -0.00796409	      0.01922935	     -0.01823899	      0.00243462	      0.00854179	      0.00594212	      0.00053644	      0.01782635	     -0.00936709	      0.00387572	      0.00474998	      0.01578838	      0.00000000	      0.00737572	      0.00000000	     -0.00697373	     -0.03222773	     -0.00607926	      0.02058045	     -0.00089907	     -0.00958954	     -0.00086656	      0.01452517	     -0.00594212	      0.00239335	      0.02096246	     -0.01733117	     -0.00581832	      0.01258573	     -0.00532315	     -0.01213182	      0.02657446	     -0.02975184	     -0.02277811	      0.01407126	     -0.00713879	     -0.01510288	      0.03070093	     -0.03717949
      1.93333333	     -0.31441430	      0.13317106	     -0.13317106	      0.31441430	     -0.06366250	      0.51449792	      0.23126328	     -0.23126328	     -0.51449792	      0.06366250	    101.21929999	     74.44037919	     -1.76661005	    -33.31235265	     29.26585237	     33.46319782	      0.14841071	     -0.44801628	      0.18338647	     -0.22400814	     36.73413902	    -12.83651931	    -23.20886036	      1.64043044	      1.76427536	     -2.72007076	     26.39885448	     -3.77978008	      6.00549008	     -7.43445114	      9.22279579	     12.12394760	     -0.34037960	     -7.70522763	      1.87511595	     18.81363445	    -13.44149413	    -10.65511660	      5.35514840	      5.13030019	      0.00086802	     -0.03095431	     -0.00484029	      0.01651334	     -0.01815021	     -0.00813790	      0.00507745	     -0.06649879	     -0.00274564	      0.00712871	     -0.18362498	     -0.00032393	     -0.00401557	      0.00112092	      0.00018177	      0.00029029	      0.00011612	      0.00058058	      0.00037157	      0.00111472	      0.00062703	     -0.00001277	     -0.00016870	     -0.00020245	      0.00243999	      0.00856065	      0.00595524	     -0.00798167	      0.01927180	     -0.01827926	      0.00243999	      0.00856065	      0.00595524	      0.00053763	      0.01786571	     -0.00938777	      0.00388203	      0.00476047	      0.01580428	      0.00000000	      0.00740853	      0.00000000	     -0.00698913	     -0.03229888	     -0.00610651	      0.02027304	     -0.00087165	     -0.00917614	     -0.00086847	      0.01455724	     -0.00595524	      0.00239864	      0.02100875	     -0.01736944	     -0.00583117	      0.01261352	     -0.00533490	     -0.01215861	      0.02663314	     -0.02981753	     -0.02282840	      0.01410233	     -0.00715455	     -0.01513622	      0.03076872	     -0.03726158
      1.96666667	     -0.31512648	      0.13347271	     -0.13347271	      0.31512648	     -0.06380670	      0.51566333	      0.23178712	     -0.23178712	     -0.51566333	      0.06380670	    101.08058364	     74.60899598	     -1.76418899	    -32.43879196	     29.05077016	     32.00282884	      0.13391331	     -0.44469393	      0.16706161	     -0.22234696	     36.51069192	    -13.01544914	    -22.13946363	      3.88515501	     -1.78456189	     -4.08543208	     24.63705048	     -6.22410661	      1.85839475	     -8.15430884	      8.80401165	     11.61475733	     -3.68658851	     -7.40195478	     -1.04303429	     18.61102888	    -17.69983382	    -10.24078304	      4.68462520	      5.12478357	      0.00086091	     -0.03092966	     -0.00483632	      0.01648633	     -0.01809178	     -0.00827892	      0.00518535	     -0.06642902	     -0.00262800	      0.00698496	     -0.18365235	     -0.00030557	     -0.00384033	      0.00106479	      0.00018651	      0.00028938	      0.00011575	      0.00057875	      0.00037040	      0.00111120	      0.00062505	     -0.00001281	     -0.00017220	     -0.00020664	      0.00244552	      0.00858004	      0.00596872	     -0.00799975	      0.01931546	     -0.01832067	      0.00244552	      0.00858004	      0.00596872	      0.00053884	      0.01790617	     -0.00940903	      0.00388852	      0.00477125	      0.01582055	      0.00000000	      0.00744235	      0.00000000	     -0.00700496	     -0.03237204	     -0.00613460	      0.01991943	     -0.00084116	     -0.00872152	     -0.00087044	      0.01459022	     -0.00596872	      0.00240407	      0.02105633	     -0.01740878	     -0.00584438	      0.01264209	     -0.00534698	     -0.01218615	      0.02669346	     -0.02988507	     -0.02288011	      0.01413427	     -0.00717076	     -0.01517051	      0.03083841	     -0.03734598
      2.00000000	     -0.31534658	      0.13356593	     -0.13356593	      0.31534658	     -0.06385127	      0.51602348	      0.23194900	     -0.23194900	     -0.51602348	      0.06385127	    101.19396640	     74.66110478	     -1.76616790	    -32.25942143	     28.74746836	     32.03707702	      0.13558716	     -0.45119819	      0.16896396	     -0.22559909	     37.39164075	    -12.67308552	    -21.61524035	      4.22437416	     -3.18721976	     -4.29244896	     23.94319726	     -6.66520405	      0.98781860	     -8.24035202	      8.39792105	     11.44281829	     -4.27003902	     -7.05066751	     -1.56200581	     18.47845595	    -18.27270123	    -10.38488298	      4.42493953	      5.02695525	      0.00085088	     -0.03089490	     -0.00483072	      0.01648701	     -0.01800939	     -0.00827564	      0.00518282	     -0.06643066	     -0.00263076	      0.00698832	     -0.18365171	     -0.00030602	     -0.00384444	      0.00106610	      0.00018640	      0.00029115	      0.00011646	      0.00058230	      0.00037267	      0.00111802	      0.00062889	     -0.00001256	     -0.00015805	     -0.00018966	      0.00244723	      0.00858603	      0.00597289	     -0.00800534	      0.01932895	     -0.01833346	      0.00244723	      0.00858603	      0.00597289	      0.00053922	      0.01791868	     -0.00941560	      0.00389052	      0.00477458	      0.01582556	      0.00000000	      0.00745282	      0.00000000	     -0.00700985	     -0.03239465	     -0.00614330	      0.01984547	     -0.00083492	     -0.00862931	     -0.00087105	      0.01460041	     -0.00597289	      0.00240575	      0.02107104	     -0.01742094	     -0.00584846	      0.01265092	     -0.00535072	     -0.01219466	      0.02671211	     -0.02990595	     -0.02289609	      0.01414414	     -0.00717577	     -0.01518110	      0.03085995	     -0.03737206
      2.03333333	     -0.31528046	      0.13353792	     -0.13353792	      0.31528046	     -0.06383788	      0.51591529	      0.23190037	     -0.23190037	     -0.51591529	      0.06383788	    101.21711127	     74.64545133	     -1.76657185	    -32.24911927	     28.75704412	     32.03718264	      0.13557631	     -0.45119915	      0.16895121	     -0.22559958	     37.39297798	    -12.67250504	    -21.61417563	      4.22506561	     -3.19423108	     -4.29317899	     23.94104788	     -6.66718611	      0.98408453	     -8.24095227	      8.39685468	     11.44238212	     -4.27118080	     -7.05011891	     -1.56397651	     18.47804807	    -18.27240747	    -10.38550460	      4.42452020	      5.02683248	      0.00085119	     -0.03089600	     -0.00483090	      0.01648700	     -0.01801199	     -0.00827562	      0.00518281	     -0.06643066	     -0.00263077	      0.00698834	     -0.18365171	     -0.00030602	     -0.00384445	      0.00106611	      0.00018640	      0.00029115	      0.00011646	      0.00058230	      0.00037267	      0.00111802	      0.00062889	     -0.00001256	     -0.00015803	     -0.00018963	      0.00244671	      0.00858423	      0.00597164	     -0.00800366	      0.01932489	     -0.01832962	      0.00244671	      0.00858423	      0.00597164	      0.00053911	      0.01791492	     -0.00941363	      0.00388992	      0.00477358	      0.01582406	      0.00000000	      0.00744968	      0.00000000	     -0.00700838	     -0.03238786	     -0.00614068	      0.01984122	     -0.00083456	     -0.00862402	     -0.00087086	      0.01459735	     -0.00597164	      0.00240524	      0.02106662	     -0.01741729	     -0.00584723	      0.01264827	     -0.00534960	     -0.01219210	      0.02670651	     -0.02989968	     -0.02289129	      0.01414118	     -0.00717426	     -0.01517792	      0.03085348	     -0.03736423
      2.06666667	     -0.31573283	      0.13372953	     -0.13372953	      0.31573283	     -0.06392948	      0.51665554	      0.23223311	     -0.23223311	     -0.51665554	      0.06392948	    100.97126561	     74.75255444	     -1.76228103	    -31.79940522	     28.99351288	     31.56839713	      0.11945995	     -0.40487779	      0.15044362	     -0.20243890	     36.66039245	    -13.51230276	    -19.94098305	      5.37531979	     -6.30305635	     -5.68907039	     23.03369964	    -13.57659171	     -2.50530669	     -8.89188094	      8.37960476	     10.88474150	     -5.87490417	     -6.91219773	     -6.49440829	     18.75451340	    -21.19587325	    -10.22634920	      3.55003150	      5.03520891	      0.00085902	     -0.03092310	     -0.00483526	      0.01647738	     -0.01807623	     -0.00832031	      0.00521745	     -0.06640826	     -0.00259300	      0.00694232	     -0.18366037	     -0.00029981	     -0.00378820	      0.00104822	      0.00018770	      0.00027697	      0.00011079	      0.00055393	      0.00035452	      0.00106355	      0.00059825	     -0.00001278	     -0.00016985	     -0.00020382	      0.00245022	      0.00859655	      0.00598021	     -0.00801514	      0.01935262	     -0.01835592	      0.00245022	      0.00859655	      0.00598021	      0.00053988	      0.01794063	     -0.00942714	      0.00389403	      0.00478043	      0.01583435	      0.00000000	      0.00747121	      0.00000000	     -0.00701844	     -0.03243433	     -0.00615857	      0.01965409	     -0.00081896	     -0.00839427	     -0.00087211	      0.01461829	     -0.00598021	      0.00240870	      0.02109685	     -0.01744228	     -0.00585562	      0.01266642	     -0.00535727	     -0.01220959	      0.02674483	     -0.02994258	     -0.02292414	      0.01416147	     -0.00718456	     -0.01519970	      0.03089775	     -0.03741784
